<svg width="41" height="52" viewBox="0 0 41 52" fill="none" xmlns="http://www.w3.org/2000/svg">
<path d="M14.5984 10.4337C12.4258 14.6846 4.16801 19.2504 0.546875 21.061V48.9279L4.32545 50.3449C5.17563 51.384 13.7325 51.8799 17.9047 51.998H32.0744C37.9311 50.6755 37.4273 45.8578 36.4433 43.6143C39.4662 41.5361 38.9624 37.7103 38.3326 36.0572C42.1112 32.8454 40.5368 29.2085 39.2773 27.7915C43.2448 21.5569 38.7262 18.8174 35.971 18.227H25.2257L26.1703 16.4558C27.7054 12.9921 29.453 5.28535 24.163 2.16803C18.873 -0.949296 17.5898 1.97135 17.1962 4.05743C16.7061 6.65526 16.7711 6.18276 14.5984 10.4337Z" fill="#F5BF42"/>
</svg>
