<svg width="19" height="17" viewBox="0 0 19 17" fill="none" xmlns="http://www.w3.org/2000/svg">
<path d="M18.4343 6.57203C18.3594 6.34463 18.1603 6.17867 17.9207 6.1443L12.5356 5.37135L10.1277 0.552203C9.91338 0.123224 9.20066 0.123224 8.98616 0.552203L6.57824 5.37135L1.19319 6.1442C0.953579 6.17857 0.754459 6.34452 0.679592 6.57192C0.60474 6.7996 0.667236 7.04917 0.840519 7.21638L4.73695 10.9675L3.81698 16.2643C3.77622 16.4999 3.87451 16.7384 4.07023 16.879C4.26666 17.0196 4.5263 17.0382 4.74036 16.9268L9.55672 14.4258L14.3731 16.9268C14.587 17.0376 14.8466 17.0198 15.0432 16.879C15.2389 16.7384 15.3371 16.4999 15.2965 16.2643L14.3765 10.9675L18.2729 7.21638C18.4464 7.04916 18.5087 6.79971 18.4339 6.57206L18.4343 6.57203Z" fill="#F5BF42"/>
</svg>
