<svg width="19" height="17" viewBox="0 0 19 17" fill="none" xmlns="http://www.w3.org/2000/svg">
<path d="M18.3776 6.57203C18.3028 6.34463 18.1037 6.17867 17.864 6.1443L12.479 5.37135L10.0711 0.552203C9.85674 0.123224 9.14402 0.123224 8.92952 0.552203L6.5216 5.37135L1.13655 6.1442C0.896938 6.17857 0.697819 6.34452 0.622952 6.57192C0.548099 6.7996 0.610595 7.04917 0.783878 7.21638L4.68031 10.9675L3.76034 16.2643C3.71958 16.4999 3.81787 16.7384 4.01359 16.879C4.21002 17.0196 4.46966 17.0382 4.68372 16.9268L9.50008 14.4258L14.3164 16.9268C14.5304 17.0376 14.79 17.0198 14.9866 16.879C15.1823 16.7384 15.2804 16.4999 15.2398 16.2643L14.3199 10.9675L18.2163 7.21638C18.3897 7.04916 18.4521 6.79971 18.3772 6.57206L18.3776 6.57203Z" fill="#F5BF42"/>
</svg>
