<svg width="19" height="17" viewBox="0 0 19 17" fill="none" xmlns="http://www.w3.org/2000/svg">
<path d="M18.321 6.57203C18.2462 6.34463 18.047 6.17867 17.8074 6.1443L12.4224 5.37135L10.0144 0.552203C9.8001 0.123224 9.08738 0.123224 8.87288 0.552203L6.46496 5.37135L1.07991 6.1442C0.840298 6.17857 0.641178 6.34452 0.566311 6.57192C0.491459 6.7996 0.553954 7.04917 0.727237 7.21638L4.62367 10.9675L3.7037 16.2643C3.66294 16.4999 3.76123 16.7384 3.95695 16.879C4.15338 17.0196 4.41302 17.0382 4.62708 16.9268L9.44344 14.4258L14.2598 16.9268C14.4737 17.0376 14.7333 17.0198 14.9299 16.879C15.1257 16.7384 15.2238 16.4999 15.1832 16.2643L14.2632 10.9675L18.1596 7.21638C18.3331 7.04916 18.3954 6.79971 18.3206 6.57206L18.321 6.57203Z" fill="#F5BF42"/>
</svg>
